G04 MADE WITH FRITZING*
G04 WWW.FRITZING.ORG*
G04 DOUBLE SIDED*
G04 HOLES PLATED*
G04 CONTOUR ON CENTER OF CONTOUR VECTOR*
%ASAXBY*%
%FSLAX23Y23*%
%MOIN*%
%OFA0B0*%
%SFA1.0B1.0*%
%ADD10C,0.075000*%
%ADD11C,0.078000*%
%ADD12C,0.068000*%
%ADD13R,0.075000X0.075000*%
%ADD14C,0.024000*%
%LNCOPPER0*%
G90*
G70*
G54D10*
X1338Y716D03*
X1338Y616D03*
X438Y216D03*
X438Y116D03*
X338Y416D03*
X338Y516D03*
X1638Y616D03*
X1638Y516D03*
X638Y416D03*
X638Y516D03*
X2038Y216D03*
X1638Y216D03*
X1838Y516D03*
X1938Y516D03*
X2038Y516D03*
G54D11*
X2238Y516D03*
X2238Y416D03*
X2238Y316D03*
X2038Y716D03*
X1938Y716D03*
X1538Y116D03*
X1438Y116D03*
X938Y116D03*
X838Y116D03*
X738Y116D03*
X138Y416D03*
X138Y316D03*
X1238Y116D03*
X1138Y116D03*
X538Y716D03*
X638Y716D03*
G54D10*
X1238Y416D03*
X1638Y416D03*
X1438Y316D03*
X1838Y316D03*
G54D12*
X837Y316D03*
X937Y316D03*
X1037Y316D03*
X1137Y316D03*
X1137Y616D03*
X1037Y616D03*
X937Y616D03*
X837Y616D03*
G54D13*
X1338Y716D03*
X438Y216D03*
X338Y416D03*
X1638Y616D03*
X638Y416D03*
G54D14*
X737Y715D02*
X657Y716D01*
D02*
X825Y627D02*
X737Y715D01*
D02*
X937Y515D02*
X452Y127D01*
D02*
X1025Y605D02*
X937Y515D01*
D02*
X1039Y515D02*
X1037Y600D01*
D02*
X1239Y315D02*
X1039Y515D01*
D02*
X1420Y316D02*
X1239Y315D01*
D02*
X1438Y298D02*
X1438Y135D01*
D02*
X937Y217D02*
X1025Y305D01*
D02*
X851Y129D02*
X937Y217D01*
D02*
X1839Y316D02*
X1839Y316D01*
D02*
X2026Y503D02*
X1839Y316D01*
D02*
X957Y116D02*
X1119Y116D01*
D02*
X1626Y203D02*
X1551Y129D01*
D02*
X2038Y533D02*
X2038Y697D01*
D02*
X1919Y716D02*
X1355Y716D01*
D02*
X537Y616D02*
X626Y528D01*
D02*
X538Y697D02*
X537Y616D01*
D02*
X2238Y497D02*
X2238Y435D01*
D02*
X2055Y516D02*
X2219Y516D01*
D02*
X1239Y616D02*
X1320Y616D01*
D02*
X1153Y616D02*
X1239Y616D01*
D02*
X1938Y533D02*
X1938Y697D01*
D02*
X1339Y515D02*
X1338Y598D01*
D02*
X1250Y428D02*
X1339Y515D01*
D02*
X1638Y433D02*
X1638Y498D01*
D02*
X339Y115D02*
X420Y116D01*
D02*
X151Y302D02*
X339Y115D01*
G04 End of Copper0*
M02*