G04 MADE WITH FRITZING*
G04 WWW.FRITZING.ORG*
G04 DOUBLE SIDED*
G04 HOLES PLATED*
G04 CONTOUR ON CENTER OF CONTOUR VECTOR*
%ASAXBY*%
%FSLAX23Y23*%
%MOIN*%
%OFA0B0*%
%SFA1.0B1.0*%
%ADD10C,0.075000*%
%ADD11C,0.078000*%
%ADD12C,0.068000*%
%ADD13R,0.075000X0.075000*%
%ADD14C,0.024000*%
%LNCOPPER1*%
G90*
G70*
G54D10*
X1338Y716D03*
X1338Y616D03*
X438Y216D03*
X438Y116D03*
X338Y416D03*
X338Y516D03*
X1638Y616D03*
X1638Y516D03*
X638Y416D03*
X638Y516D03*
X2038Y216D03*
X1638Y216D03*
X1838Y516D03*
X1938Y516D03*
X2038Y516D03*
G54D11*
X2238Y516D03*
X2238Y416D03*
X2238Y316D03*
X2038Y716D03*
X1938Y716D03*
X1538Y116D03*
X1438Y116D03*
X938Y116D03*
X838Y116D03*
X738Y116D03*
X138Y416D03*
X138Y316D03*
X1238Y116D03*
X1138Y116D03*
X538Y716D03*
X638Y716D03*
G54D10*
X1238Y416D03*
X1638Y416D03*
X1438Y316D03*
X1838Y316D03*
G54D12*
X837Y316D03*
X937Y316D03*
X1037Y316D03*
X1137Y316D03*
X1137Y616D03*
X1037Y616D03*
X937Y616D03*
X837Y616D03*
X837Y316D03*
X937Y316D03*
X1037Y316D03*
X1137Y316D03*
X1137Y616D03*
X1037Y616D03*
X937Y616D03*
X837Y616D03*
G54D13*
X1338Y716D03*
X438Y216D03*
X338Y416D03*
X1638Y616D03*
X638Y416D03*
G54D14*
X1137Y217D02*
X1137Y300D01*
D02*
X937Y217D02*
X1039Y217D01*
D02*
X937Y217D02*
X737Y217D01*
D02*
X737Y217D02*
X738Y135D01*
D02*
X737Y217D02*
X455Y216D01*
D02*
X738Y135D02*
X737Y217D01*
D02*
X937Y300D02*
X937Y217D01*
D02*
X937Y300D02*
X937Y217D01*
D02*
X1039Y217D02*
X1137Y217D01*
D02*
X1738Y617D02*
X1826Y528D01*
D02*
X1655Y616D02*
X1738Y617D01*
D02*
X1338Y315D02*
X1626Y603D01*
D02*
X1153Y316D02*
X1338Y315D01*
D02*
X439Y315D02*
X350Y403D01*
D02*
X438Y233D02*
X439Y315D01*
D02*
X2219Y316D02*
X2036Y315D01*
D02*
X2036Y315D02*
X2038Y233D01*
D02*
X739Y415D02*
X655Y416D01*
D02*
X825Y327D02*
X739Y415D01*
D02*
X1137Y217D02*
X1137Y300D01*
D02*
X1225Y129D02*
X1137Y217D01*
D02*
X739Y515D02*
X839Y515D01*
D02*
X839Y515D02*
X926Y605D01*
D02*
X439Y615D02*
X637Y616D01*
D02*
X637Y616D02*
X739Y515D01*
D02*
X350Y528D02*
X439Y615D01*
D02*
X2038Y233D02*
X2036Y315D01*
D02*
X2036Y315D02*
X1850Y503D01*
D02*
X320Y416D02*
X157Y416D01*
G04 End of Copper1*
M02*