; NON-PLATED HOLES START AT T1
; THROUGH (PLATED) HOLES START AT T100
M48
INCH
T1C0.125984
T100C0.038000
T101C0.032000
T102C0.035000
%
T1
X022379Y001157
X001379Y001157
X001379Y007157
X022379Y007157
T100
X019379Y007157
X009379Y001157
X022379Y005157
X007379Y001157
X012379Y001157
X001379Y003157
X022379Y003157
X008379Y001157
X001379Y004157
X022379Y004157
X006379Y007157
X011379Y001157
X014379Y001157
X015379Y001157
X020379Y007157
X005379Y007157
T101
X009367Y006160
X009367Y003160
X011367Y003160
X011367Y006160
X010367Y003160
X010367Y006160
X008367Y006160
X008367Y003160
T102
X003379Y004157
X018379Y005157
X006379Y005157
X013379Y006157
X004379Y001157
X018379Y003157
X020379Y005157
X016379Y002157
X016379Y004157
X012379Y004157
X006379Y004157
X003379Y005157
X016379Y006157
X019379Y005157
X020379Y002157
X004379Y002157
X013379Y007157
X016379Y005157
X014379Y003157
T00
M30
